<svg id="Layer_1" data-name="Layer 1" xmlns="http://www.w3.org/2000/svg" xmlns:xlink="http://www.w3.org/1999/xlink" viewBox="0 0 845 424"><defs><style>.cls-1{fill:#4d5dfb;}.cls-2{fill:url(#linear-gradient);}.cls-3{fill:url(#linear-gradient-2);}</style><linearGradient id="linear-gradient" x1="588.58" y1="605.45" x2="608.34" y2="412.63" gradientTransform="translate(-8.28 -215.98) rotate(-1.07)" gradientUnits="userSpaceOnUse"><stop offset="0.42" stop-color="#089cf6"/><stop offset="0.53" stop-color="#0b97f2"/><stop offset="0.66" stop-color="#1289e8"/><stop offset="0.8" stop-color="#1f71d6"/><stop offset="0.95" stop-color="#3050bd"/><stop offset="1" stop-color="#3743b3"/></linearGradient><linearGradient id="linear-gradient-2" x1="448.65" y1="495.53" x2="789.16" y2="495.53" gradientTransform="translate(-12.02 -287.76) rotate(-2.3)" gradientUnits="userSpaceOnUse"><stop offset="0.19" stop-color="#34acf6"/><stop offset="0.36" stop-color="#36a7f6"/><stop offset="0.55" stop-color="#3a99f7"/><stop offset="0.76" stop-color="#4281f9"/><stop offset="0.98" stop-color="#4c60fb"/><stop offset="1" stop-color="#4d5dfb"/></linearGradient></defs><path class="cls-1" d="M105.16,192.11V115.89H78V101.68h69.62v14.21H120.4v76.22Z"/><path class="cls-1" d="M181.81,193a35.25,35.25,0,0,1-18.22-4.59,31.62,31.62,0,0,1-12.07-12.53,37.81,37.81,0,0,1-4.28-18.27,38.74,38.74,0,0,1,4.16-18.28,31.89,31.89,0,0,1,11.49-12.53,30.78,30.78,0,0,1,16.7-4.59,30.18,30.18,0,0,1,16.29,4.46,31,31,0,0,1,11.25,12.46q4.11,8,4.1,19c0,.61,0,1.36-.06,2.26s-.09,1.7-.17,2.39H158.84V152.06h44.42l-5.86,3.36a22,22,0,0,0-2.16-10.4,17.4,17.4,0,0,0-6.28-7.1,17.14,17.14,0,0,0-9.37-2.52,17.87,17.87,0,0,0-9.44,2.52,16.53,16.53,0,0,0-6.39,7.17,24.59,24.59,0,0,0-2.22,10.72v2.58a23.16,23.16,0,0,0,2.52,11,17.93,17.93,0,0,0,7.21,7.43,21.7,21.7,0,0,0,10.9,2.65,21.56,21.56,0,0,0,17-7.62l8,10.07a28.11,28.11,0,0,1-10.72,8.27A35.68,35.68,0,0,1,181.81,193Z"/><path class="cls-1" d="M255.19,193a33.5,33.5,0,0,1-17.53-4.59,32.3,32.3,0,0,1-12-12.53,40.79,40.79,0,0,1,0-36.62,32.53,32.53,0,0,1,12-12.46,33.5,33.5,0,0,1,17.53-4.59,31,31,0,0,1,16.05,4.14,25.57,25.57,0,0,1,10.55,12l-11.13,7.23a19.76,19.76,0,0,0-6.86-7.17,16.91,16.91,0,0,0-8.73-2.39,18,18,0,0,0-16.53,10.14,25,25,0,0,0-2.46,11.44,25.33,25.33,0,0,0,2.46,11.49,17.94,17.94,0,0,0,16.53,10.21,16.91,16.91,0,0,0,8.73-2.39,19.42,19.42,0,0,0,6.86-7.3l11.13,7.23a26.06,26.06,0,0,1-10.55,11.95A30.7,30.7,0,0,1,255.19,193Z"/><path class="cls-1" d="M330.67,122.22a27.17,27.17,0,0,1,13.42,3.23,23.11,23.11,0,0,1,9.26,10q3.45,6.72,3.45,17.18v39.53H342.15V154.65q0-9.18-3.86-13.7t-11-4.52a17.84,17.84,0,0,0-9.15,2.33,15.36,15.36,0,0,0-6.15,6.91,27.13,27.13,0,0,0-2.17,11.56v34.88H295.27V96.26H309.8v45.6l-3-5.82a23,23,0,0,1,9.43-10.2A28.48,28.48,0,0,1,330.67,122.22Z"/><path class="cls-1" d="M380.71,218.07a26.6,26.6,0,0,1-9.25-1.68,20.14,20.14,0,0,1-7.51-4.65L369.7,200a19.36,19.36,0,0,0,5,3.35,13.36,13.36,0,0,0,5.8,1.3,9.34,9.34,0,0,0,6.45-2.2q2.46-2.19,4.57-7.49l3.51-8.79,1.41-2.06,23.56-61H434l-29.3,74.66a45.39,45.39,0,0,1-6.5,12.08,20.79,20.79,0,0,1-8,6.33A24.12,24.12,0,0,1,380.71,218.07Zm12.78-23.51-28.25-71.43h15.12l23.09,59.55Z"/><path class="cls-1" d="M115,304.34a24.19,24.19,0,0,1-12-3.1,23.45,23.45,0,0,1-8.92-8.82l4.65-6a23.81,23.81,0,0,0,7.25,7.63,16.53,16.53,0,0,0,9.08,2.62q14.07,0,14.06-18.36V227.81H101.44v-7.63H137V278q0,13.25-5.57,19.79T115,304.34Z"/><path class="cls-1" d="M175.42,304.22a24.76,24.76,0,0,1-11.09-2.32,17,17,0,0,1-7.19-6.44,17.93,17.93,0,0,1-2.49-9.48,18.66,18.66,0,0,1,2.11-8.88,15.38,15.38,0,0,1,6.92-6.44q4.81-2.45,12.93-2.44h19.58v6.32H176.83q-8.24,0-11.42,3.21a10.93,10.93,0,0,0-3.19,8,10.7,10.7,0,0,0,3.79,8.59q3.78,3.21,10.6,3.21a19.11,19.11,0,0,0,11.19-3.27,18.62,18.62,0,0,0,6.87-9.48l1.73,5.84a19.52,19.52,0,0,1-7.52,9.89Q183.54,304.23,175.42,304.22Zm19.58-.6V289.8l-.33-2.27V264.4q0-8-4-12.28t-12.06-4.29a27.61,27.61,0,0,0-10.5,2,26.29,26.29,0,0,0-8.43,5.36l-3.46-6.31a29.94,29.94,0,0,1,10.38-6.26,37,37,0,0,1,12.76-2.21q11,0,17,6t6,18.3v38.86Z"/><path class="cls-1" d="M246.7,304.22a25.81,25.81,0,0,1-12.66-3,20.2,20.2,0,0,1-8.38-8.94q-3-6-3-14.9V241h7.68v35.4q0,10,4.48,15.08t12.61,5.07a19.41,19.41,0,0,0,10.33-2.68,17.18,17.18,0,0,0,6.7-7.81,29.57,29.57,0,0,0,2.33-12.28V241h7.68v62.58h-7.36V286.46l1.19,3.1A22.71,22.71,0,0,1,260,300.35,23,23,0,0,1,246.7,304.22Z"/><path class="cls-1" d="M324.9,240.44a24.71,24.71,0,0,1,12.17,2.92,20.13,20.13,0,0,1,8.22,8.88q3,6,3,15v36.36h-7.68V268.1q0-9.9-4.49-15t-12.6-5.07A20.24,20.24,0,0,0,313,250.75,17.73,17.73,0,0,0,306,258.5a27.91,27.91,0,0,0-2.44,12.22v32.9h-7.68V241h7.36V258.2L302.08,255a22.13,22.13,0,0,1,8.65-10.67A25.34,25.34,0,0,1,324.9,240.44Z"/><path class="cls-1" d="M360.16,248.07v-7h35.15v7ZM387,304.22q-8,0-12.33-4.77T370.33,286V227.21H378V285.5c0,3.66.84,6.48,2.54,8.47s4.13,3,7.3,3a11.69,11.69,0,0,0,8.44-3.22l2.7,6.08a13.88,13.88,0,0,1-5.46,3.34A20.56,20.56,0,0,1,387,304.22Z"/><circle class="cls-1" cx="481.25" cy="278.57" r="21.03"/><path class="cls-2" d="M682,212.52a676.31,676.31,0,0,0-126,66.29c-12.33,8.27-24,16.66-34.91,25.07q18.28-38.53,36.58-77.06Z"/><path class="cls-1" d="M686.09,170.6,508.54,120l17.11-18.52,227.49,83.83Z"/><path class="cls-3" d="M502.88,138l-44.7,100.71L797.5,202.16l-90.38-19.68Z"/></svg>